<!--?xml version="1.0" encoding="UTF-8"?-->
<svg data-bbox="0 0.033 1365.3 1365.3" xmlns="http://www.w3.org/2000/svg" viewBox="0 0 1365.333 1365.333" height="1365.333" width="1365.333" data-type="color">
    <g>
        <path d="M1136.034 518.272c-19.049 7.093-33.703 11.646-51.438 7.61-56.691-143.718-193.884-247.75-354.057-256.023-135.329-6.992-256.084 52.373-334.129 147.71-3.56 4.349-7.105 8.711-10.484 13.207-.276.367-.58.708-.853 1.075.045-.039.093-.07.14-.11 9.262-7.864 18.9-13.816 28.669-17.802.776-.309 1.548-.59 2.326-.944 11.961-4.46 24.096-5.866 35.997-3.483 57.62 11.533 87.626 104.345 67.018 207.304-20.606 102.958-84.02 177.075-141.64 165.544-40.398-8.087-67.125-56.191-72.45-119.665-.006-.07-.017-.138-.022-.207-.017.688.015 1.387 0 2.076a409.463 409.463 0 0 0 0 15.983c.019.984-.024 1.956 0 2.942.021.789.1 1.562.125 2.35.188 5.95.496 11.868.939 17.75.2 2.68.493 5.335.747 8.002.274 2.886.59 5.757.925 8.625 5.345 45.873 18.22 89.359 37.538 129.115 2.432 5.004 1.193 10.987-3.126 14.495l-11.074 9.002c-10.058 8.176-14.476 20.72-12.961 32.76.259 2.043.723 4.062 1.335 6.048.069.226.15.447.224.672.638 1.936 1.41 3.843 2.372 5.683l2.022-1.54 9.163-6.979c4.593-3.498 11.154-2.61 14.653 1.983 3.498 4.595 2.61 11.156-1.983 14.654l-9.812 7.473-1.468 1.118 47.054 57.889c12.583 15.482 35.547 17.854 51.03 5.27l10.303-8.374c4.37-3.55 10.561-3.5 14.97-.001 71.564 56.76 162.625 89.752 261.075 87.21 83.187-2.147 159.781-29.392 222.894-74.19 4.684-3.325 11.004-2.965 15.17.99l6.553 6.224c12.418 11.794 31.15 12.949 44.906 3.906a44.199 44.199 0 0 0 2.224-1.56l-.149-.142-8.39-7.888c-4.211-3.95-4.423-10.568-.472-14.78 3.949-4.213 10.566-4.425 14.778-.476l8.997 8.438 50.381-53.051c13.739-14.468 13.143-37.547-1.325-51.286l-10.51-9.982c-3.962-3.761-4.79-9.676-2.142-14.452 37.498-67.647 56.151-147.025 48.878-230.916a397.634 397.634 0 0 0-4.785-35.9c12.066-11.1 34.125-32.943 42.757-51.665 9.268-20.1 11.588-40.807-12.893-31.692" fill="black" data-color="2"></path>
        <path d="M373.17 504.517c10.752-9.157 22.497-13.518 33.814-11.252 29.022 5.808 44.137 52.56 33.757 104.42-10.378 51.86-42.322 89.192-71.345 83.382-19.718-3.946-32.942-26.844-36.184-57.351 7.249 2.818 14.8 4.54 22.398 4.886 21.06.957 34.838-6.134 45.565-20.53 13.85-18.585 3.372-70.085-14.92-76.753-14.259-5.197-22.673 1.052-35.353 1.99 6.402-11.928 14.038-21.784 22.267-28.792zm-52.594 136.5c4.085 49.16 24.767 86.428 56.039 92.688 44.553 8.917 93.588-48.392 109.52-128.004 15.935-79.611-7.267-151.377-51.82-160.294-17.372-3.476-35.402 3.217-51.909 17.274-18.012 15.338-34.18 39.534-45.621 69.237-.399-.104-.77-.168-1.176-.284-5.612-1.608-8.615-5.265-12.49-6.095 15.397-16.647 17.72-42.299 4.178-61.623-15.605-22.265-46.304-27.665-68.569-12.06-20.055 14.055-26.267 40.307-15.929 61.661-9.14.35-18.291 3.156-26.338 8.794-22.266 15.605-27.664 46.305-12.06 68.568 15.604 22.266 46.303 27.665 68.568 12.06 7.085-4.967 12.255-11.553 15.79-18.82 7.443 13.677 18.44 25.076 31.133 32.934-.192 8.23.043 16.241.684 23.963" fill="black" data-color="2"></path>
    </g>
</svg>